<svg xmlns="http://www.w3.org/2000/svg" width="766" height="373"><g fill="#ffffff" fill-rule="evenodd"><path d="M224.6 311h9.2v-19h-9.2v19zm-1.4 1.4h12v-21.7h-12v21.7zm-28.4 3.2h9.6V298h-9.6v17.6zm-1.4 1.4H206v-20.4h-12.5V317zm-20.4-1.4h9.7V298H173v17.6zm-1.4 1.4h12.5v-20.4h-12.5V317zm-20.4-1.4h9.7V298h-9.7v17.6zm-1.4 1.4h12.5v-20.4h-12.5V317zm-20.4-1.4h9.7V298h-9.7v17.6zM128 317h12.5v-20.4H128V317zm-20.4-1.4h9.7V298h-9.7v17.6zm-1.4 1.4h12.5v-20.4h-12.5V317zm-20.4-1.4h9.7V298h-9.7v17.6zm-1.4 1.4H97v-20.4H84.4V317zm-49.6-1.4h9.6V298h-9.6v17.6zm-1.4 1.4h12.4v-20.4H33.4V317zM10 315.6h9.7V298H10v17.6zM8.6 317h12.5v-20.4H8.6V317zm50.9-1.4h9.7V298h-9.7v17.6zm-1.4 1.4h12.5v-20.4H58V317zm337.1-6h9.1v-19h-9.1v19zm-1.4 1.4h12v-21.7h-12v21.7zm-70.4-1.9h-17.8v-32c0-4.5 4-8.2 8.9-8.2s8.9 3.7 8.9 8.2v32zm-9-41.6c-5.6 0-10.2 4.3-10.2 9.6V312h20.6v-33.4c0-5.3-4.6-9.6-10.3-9.6z"/><path d="M421.6 272.9l-2.5 4.9h-80.8c0-1.1-.1-2.1-.4-3.4.5-.4.8-1 1-1.5h82.7zm-5.2 82.5h-8.3v-27.1a8.3 8.3 0 0 0-16.6 0v27.1h-9.8v-76.2h34.7v76.2zm-23.5 0v-27.1a6.9 6.9 0 0 1 13.7 0v27.1H393zm-26.8 0h14.2v-76h-14.2v76zm0 15.6h50.3v-14.1h-50.3v14zm-1.4-48.7h-5v-25.9l-.2-.2s-1.7-1.6-5-1.6a7.1 7.1 0 0 0-5 1.6l-.1.2v26h-10.8v-43h26.1v43zm-14 0V297c.5-.3 1.8-1 3.8-1 2.1 0 3.4.7 3.8 1v25.3h-7.5zm14 33.1h-18.1v-22.6h-2.8v-9h21v31.6zM346.6 371h18.1v-14.1h-18.1v14zm-1.4 0h-17.8v-31h-25.9v31h-17.7v-36.8h61.4V371zm-42.2 0h23v-29.5h-23V371zm-20.6-15.6h-18.1v-31.7H285v9.1h-2.7v22.6zM264.3 371h18.1v-14.1h-18.1v14zm-15.7-15.6h14.2v-76h-14.2v76zm-36 15.6h50.2v-14.1h-50.3v14zm23.5-42.7v27.1h-13.8v-27.1a6.9 6.9 0 0 1 13.8 0zm-6.9-8.3a8.3 8.3 0 0 0-8.3 8.3v27.1h-8.4v-76.2h34.7v76.2h-9.7v-27.1c0-4.6-3.7-8.3-8.3-8.3zm-19.3-42.2l-2.6-5H290c.3.6.6 1.2 1 1.6-.3 1.3-.3 2.3-.4 3.4h-80.7zm1.2 77.6h-4v-23.9a7.4 7.4 0 0 0-14.9 0v24h-7v-24a7.4 7.4 0 0 0-14.8 0v24h-7v-24a7.4 7.4 0 1 0-14.8 0v24h-7v-24a7.4 7.4 0 0 0-14.8 0v24h-7v-24a7.4 7.4 0 0 0-14.8 0v24h-7v-24a7.4 7.4 0 0 0-14.8 0v24h-4v-76.3h131.9v76.2zm-17.5 0v-23.9a6 6 0 1 1 12 0v24h-12zm-21.8 0v-23.9a6 6 0 0 1 12 0v24h-12zm-21.8 0v-23.9a6 6 0 0 1 12 0v24h-12zm-21.8 0v-23.9a6 6 0 1 1 12 0v24h-12zm-21.8 0v-23.9a6 6 0 0 1 12 0v24h-12zm-21.7 0v-23.9a6 6 0 1 1 12 0v24h-12zM79.2 371h131.9v-14.1H79.2v14zm0-102.1h136.5v2.6H205l3.3 6.3h-129v-8.9zm25.3-1.4h42.2V197h-42.2v70.5zm-1.6-72l-2.2-3.3h49.8l-2.1 3.4h-45.5zm38-9.9v-11.2h-1.7v-27.2h.9v-6.4h5.1v44.8H141zm-34.9 5.2h39.2V187H106v3.8zm12.7-5.2h13.8v-9.8h-13.8v9.8zm7-16c3.6 0 6.6-2 8.5-4.8v9.6H117v-9.6c2 2.8 5 4.7 8.6 4.7zm0-20a9 9 0 0 1 8.5 6.2v6.1a9.2 9.2 0 0 1-8.6 6.2c-4 0-7.3-2.6-8.6-6.2v-6.1a9.2 9.2 0 0 1 8.6-6.2zm8.2 36h5.7v-9.8h-5.7v9.8zm1-39.9h3.7v-5h-3.8v5zm.8 10.1v-8.6h2.1v27.2h-2.1V162c.3-1 .6-2 .6-3 0-1.1-.3-2.1-.6-3.1zm-17.9-10h15.6v-5h-15.6v5zm16.4 1.4v5.8c-1.9-2.8-5-4.8-8.6-4.8-3.6 0-6.7 2-8.6 4.8v-5.8h17.2zm-22.5 38.4h5.6v-9.8h-5.6v9.8zm.9-39.9h3.8v-5h-3.8v5zm3 16.2v12.5h-2.2v-27.2h2.2v8.6c-.3 1-.6 2-.6 3 0 1.2.3 2.2.6 3.1zm-3.6-14.7v27.2h-1.7v11.2H106v-44.8h5.2v6.4h.8zm-9-10.4h45.3l-1.8 2.6h-41.7l-1.8-2.6zm4.3-1.4H144V120h-36.7v15.3zm3.5-20.2l.1-.1V97.4h29.4V115l2.5 3.6h-34.4l2.4-3.5zM112 93c.8-1 4.7-6 5-10.6h17.3c.3 4.5 4.1 9.5 5 10.6v3H112v-3zm8.3-20.3c.1-.2.4-.3.9-.3h.7l.2-.3s1-1.8 2.4-2.7h2.2c1.4.9 2.4 2.7 2.4 2.7l.3.4h.6c.5 0 .8 0 1 .2.2.5-.1 1.7-.5 2.4V81h-9.7v-6c-.4-.7-.8-1.9-.5-2.4zm96.8 184.2h27c0 .5.2 1 .4 1.4h-1.6v13.3H217v-14.7zm26.4-7.2c.5-.1 1.6-.2 1.7 0v.7l2.2.4.5-.2 3.8-1.6-.2-.5v-.7c0-.4 0-.8.2-1 0-.2.3-.4 1-.2h.5l.2-.4s1.4-3 3.4-3.2l1.4-.1-1-1c-.1-.3-.6-1-.5-1.6 0-.4.3-.8.8-1l1.1-.2c.4 0 .7 0 .9.2.2.3.3.8.2 1.1v.7h.7s2.3.3 2.4 1.7v.4l.4.2c.8.3 3 1.3 3.4 2.6.1.4 0 .9-.2 1.4l-1.7 1.3 1 .5c.1 0 1.5 1 .3 3.6l-.2.6-.1.3-.2.5-.8.9-.5.2v2.8h-18a2 2 0 0 1-.7-1.9v-.2l-.1-.3-.9-1.8c-.1-.5-.2-1-.1-1.4l.2-.4-.5-.4c-.2-.1-1.2-1-.6-2.2zm7.3-16.5h127.3v12.6c-.3-.3-.8-.6-1.5-.5a7.2 7.2 0 0 0-3.3-3.2c.3-.5.4-1.1.4-1.8-.2-.9-.7-1.5-1.6-2.1 0 0-.9-.3-1.7-.3-.8 0-1.5.2-2 .7-.3.3-.5.8-.6 1.5-1.1.2-2.6.9-3 2.3-.9.4-3.2 1.5-3.8 3.3a3 3 0 0 0 .5 2.7l.4.4c-.7.8-1.4 2.2-.3 4.6 0 .2.3 1.2.9 2.1h-96c.6-.9.8-1.9.8-2 1.1-2.5.5-4-.2-4.7l.4-.4a3 3 0 0 0 .4-2.7c-.6-1.8-2.8-2.9-3.8-3.3-.3-1.4-1.8-2-3-2.3a2 2 0 0 0-.6-1.5c-.4-.5-1-.7-1.9-.7-.9 0-1.7.3-1.7.3-1 .6-1.5 1.2-1.6 2 0 .8.1 1.4.3 1.9a7.3 7.3 0 0 0-3.2 3.2c-.7 0-1.2.2-1.6.5v-12.6zm8-1.4h111.3v-17.3H258.9v17.3zm41-50.7h.3l4-5.3h20.8l4 5.3h.2c22.1 3.7 37.3 26.8 40.5 32H259.4c3.2-5.2 18.3-28.3 40.4-32zm6-6.7h17.3v-18.6h-17.2v18.6zm-2-20h21.3v-1.9h-21.2v2zm3.1-6l.4-.2v-.4s.1-1.7 1.6-2.6h11.2c1.4.9 1.6 2.5 1.6 2.6v.4l.3.2c1 .5 1.3 1.8 1.4 2.7h-17.8c0-.9.4-2.2 1.3-2.7zm-1-6.2h-.5s.2-.6 1.2-1.8c.1-.1 1.7-2.2 6.3-2.2h.7v-4c0-.5.4-1 .9-1 .4 0 .8.5.8 1v4h.7c4.6 0 6.2 2 6.3 2.2a8 8 0 0 1 1.2 1.7l-.5.1c-1 0-2.7-.5-2.7-.5l-1-.4v2.1h-9.7v-2l-1 .3s-1.6.5-2.7.5zM381 250.7l.6.2 2.1-.4v-1l1.7.1c.7 1.2-.4 2-.6 2.2l-.4.4.2.4c0 .4 0 1-.2 1.4a7 7 0 0 1-.8 1.8l-.2.3v.2a2 2 0 0 1-.7 1.9h-18v-2.8l-.4-.2a2 2 0 0 1-.8-1l-.2-.4-.1-.3-.2-.6c-1.3-2.7.1-3.5.3-3.6l1-.5-1.7-1.3c-.3-.5-.4-1-.2-1.4.4-1.3 2.5-2.3 3.3-2.6l.5-.2v-.4c0-1.4 2.4-1.6 2.4-1.6l.7-.1v-.7c0-.3 0-.8.2-1 .2-.2.4-.3.9-.3l1 .1c.5.3.8.7.9 1 0 .7-.4 1.4-.6 1.7l-1 1 1.4.1c2.1.2 3.4 3.1 3.4 3.2l.2.5.6-.1c.6-.2 1 0 1 .1.2.3.2.7.2 1.1v.7l-.2.5 3.7 1.6zm-20.2 12.8h23.9v-4h-23.9v4zm0 8h23.9v-6.6h-23.9v6.6zm-116.5 0h23.9v-6.6h-23.9v6.6zm0-8h23.9v-4h-23.9v4zm42.3 69.3h55.8v-9h-55.8v9zm-8.4-35.8v25.3h-7.6V297a7 7 0 0 1 3.8-1 7 7 0 0 1 3.8 1zm1.2-.8s-1.7-1.6-5-1.6a7.1 7.1 0 0 0-5 1.6l-.2.2v26h-5v-43h26.2v42.9h-10.8v-25.9l-.2-.2zm57-21.8c.6 2 .8 3.6.8 5.2v42.7h-45.4v-42.7c0-1.6.2-3.3.7-5.2l.1-.4-.3-.3a4.9 4.9 0 0 1-1.7-3.7 5 5 0 0 1 5-5c.5 0 1 0 1.7.3l.4.1.3-.3a23.7 23.7 0 0 1 32.9 0l.3.3.5-.1a5 5 0 0 1 1.7-.4 5 5 0 0 1 5 5c0 1.5-.6 2.8-1.8 3.8l-.3.3.1.4zm-3-10.9a6 6 0 0 0-1.8.3 24.8 24.8 0 0 0-17.1-6.7c-6.5 0-12.6 2.4-17.1 6.7l-1.8-.3a6.4 6.4 0 0 0-6.5 6.4l.1.5c0 .4.2.7.3 1h-20v-13.2h-3.9v-1.4h97.7v1.4h-4v13.3h-19.9l.3-1v-.1l.1-.5c0-3.5-2.9-6.4-6.4-6.4zm78.4-6.7v14.7h-25.7v-13.3h-1.6l.4-1.4h27zm11.5 74.7a6 6 0 0 1 12 0v24h-12v-24zm21.8 0a6 6 0 0 1 12 0v24h-12v-24zM1.4 277.8h76.4v-8.9H1.4v8.9zm76.4 77.6h-6v-23.9a7.4 7.4 0 0 0-14.9 0v24H47v-24a7.4 7.4 0 0 0-14.8 0v24h-10v-24a7.4 7.4 0 0 0-14.8 0v24h-6v-76.3h76.4v76.2zm-19.5 0v-23.9a6 6 0 0 1 12 0v24h-12zm-24.7 0v-23.9a6 6 0 0 1 12 0v24h-12zm-24.8 0v-23.9a6 6 0 1 1 12 0v24h-12zM1.4 371h76.4v-14.1H1.4v14zm4.4-103.5h67.6v-8.9H5.8v8.9zM18.5 251c-.4-.8-.4-1.5 0-2.2.6-1.3 2.8-2 3.7-2l.6-.2v-.6c-.2-2.5 3.6-3.2 3.6-3.2l.6-.1v-.6c0-.5 1.8-1 3.6-1.2h.4l.2-.3c.4-.6 2-1.7 3-2.3l.8-.5-.8-.6c-.3-.2-.4-.4-.4-.6 0-.4.3-1 .4-1.2 1.1-.7 1.3-.5 1.6-.3.4.5.4 1.7.4 2.2v.6l3 .4-.4-1c-.4-1 .5-1.6.8-1.8.3 0 .5.1.6.3.2.4 0 1.2-.2 1.6l-.5 1 3.7.1c3.5-.5 4.5 1.9 4.5 2l.3.6.6-.2c.4 0 1.4.8 2.3 2.3l.2.3 1.2-.7-.1-.2c-.4-.7.3-1.4.6-1.7.8.2 1.3 1.7 1.4 2.5l.1.6H56c3 1 3.5 5.7 3.5 5.8v.5h.5c1.2.4 2 .9 2.1 1.5.3.8-.3 2-.6 2.3l-.4.6.5.4c1 .8 1.3 1.5 1.4 2H17a2 2 0 0 1-.9-1.3c-.1-1.5 1.5-3.4 2.2-4l.4-.3-.2-.5zm-8-18h58.3v24.2h-4.4c0-.7-.4-1.7-1.4-2.8.4-.7.9-1.9.5-3-.4-1-1.3-1.8-2.7-2.3-.2-1.4-1.1-5.5-4.5-6.5h-.8c-.3-1.4-1.2-3-3-3h-.3c-.4.3-.9.7-1.2 1.3-.7-.7-1.4-1.3-2.2-1.4a5 5 0 0 0-4.6-2.4h-2.6c.1-.6.2-1.4-.2-2-.2-.4-.7-1-1.8-1h-.3c-.6.3-1.4.8-1.8 1.6a3 3 0 0 0-.7-1.6c-.7-.8-2-.8-3.4.1l-.2.2c-.1.1-1 1.2-.8 2.4 0 .3.2.6.3.8-.8.5-1.9 1.3-2.5 2-1.2 0-4 .4-4.5 1.9-1.2.3-4 1.4-4.4 4-1 .2-3.2 1-4.1 2.7-.5.9-.6 1.8-.2 3-.8.7-2.5 2.7-2.3 4.7 0 .5.3.9.5 1.3h-4.8v-24.3zm402.7 34.5v-12.1h-27.8a5 5 0 0 0 .6-2.7c.8-.8 1.6-2.3.5-4l-.1-.3h-.3s-1-.4-1.8-.4c-.7 0-1.2.2-1.6.6l-.4.7-.5.2-2.3-1v-16.8h-8v-17.3h.5l-.5-.9v-.5h-.3c-2-3.3-17.8-29.2-41.6-33.3l-4-5.4h-1.1v-18.6h2V151h-1.7c-.1-1-.5-2.7-1.7-3.7-.2-1-.8-2.5-2.3-3.4v-.7l2.2.3c1 0 1.5-.3 1.8-.8.3-.8-.1-1.8-1.4-3.3 0 0-1.8-2.5-6.7-2.7V134c0-1.2-1-2.2-2.2-2.2-1.3 0-2.3 1-2.3 2.2v2.7c-4.8.2-6.6 2.6-6.7 2.7-1.2 1.5-1.7 2.5-1.3 3.3.2.5.8.8 1.7.8l2.2-.3v.7a4.6 4.6 0 0 0-2.2 3.4c-1.3 1-1.6 2.7-1.8 3.7h-1.7v4.7h2v18.6h-1.1l-4 5.4c-23.8 4-39.6 30-41.5 33.3h-.4v.5l-.4 1h.4v17.2h-8v16.8l-2.2 1-.6-.2c0-.3-.2-.6-.4-.7-.3-.4-.9-.6-1.6-.6a6 6 0 0 0-1.8.3l-.2.1-.1.2c-1.2 1.8-.4 3.3.4 4a5 5 0 0 0 .7 2.8h-27.9v12h-67.6V197h1l4-6.2h-6.5v-50h.6l3.8-5.4h-5.6v-16.7h-1l-2.7-4V96h-1v-3.6l-.2-.2s-5-6-4.8-10.6V81h-3.9v-5.4c.3-.6 1-2.4.4-3.6-.3-.4-.9-1-2-1a9.7 9.7 0 0 0-2.5-2.5v-3a2 2 0 0 0-.6-1.5v-1c0-.8-.7-1.5-1.5-1.5s-1.5.7-1.5 1.5v1a2 2 0 0 0-.6 1.4v3c-1.1.8-2 2-2.4 2.5-1.2 0-1.7.6-2 1-.7 1.2 0 3 .3 3.6v5.4h-3.8v.7c0 4.6-4.8 10.5-4.9 10.6l-.2.2V96h-1v18.6l-2.7 4.1h-1v16.7h-5.6l3.8 5.4h.6v50h-6.5l4 6.2h1v70.5H74.8v-10.3h-4.6v-25.7H9v25.7H4.4v10.3H0v104.9h473V371h-55.1v-14.1h55v-1.5h-6v-23.9a6 6 0 0 1 6-6V324c-4 0-7.4 3.3-7.4 7.4v24h-7v-24c0-4-3.3-7.4-7.4-7.4-2.7 0-5 1.5-6.2 3.6a7.4 7.4 0 0 0-1.2 3.8v24h-7v-24a7.4 7.4 0 0 0-14.8 0v24h-4v-76.3h55v-1.4h-52.2l3.3-6.3h-10.8v-2.6H473v-1.4h-59.7z"/><path d="M424.5 315.6h9.7V298h-9.7v17.6zm-1.4 1.4h12.5v-20.4H423V317zm23.2-1.4h9.6V298h-9.6v17.6zm-1.4 1.4h12.5v-20.4h-12.5V317zm21.8 0h6.2v-1.4h-4.8V298h4.8v-1.4h-6.2V317M124 217.3h3.3V208H124v9.3zm-1.5 1.4h6.2v-12.1h-6.2v12.1zm1.5 34.8h3.3v-9.3H124v9.3zm-1.5 1.4h6.2v-12.2h-6.2V255zm1.1-144.8h4v-8h-4v8zm-1.4 1.4h6.9v-10.8h-7v10.8z"/><path d="M687.3 253.5h76.6V240h-76.6v13.4zm76.6 45h-10v-13.8c0-2.6-2.3-4.7-5.3-4.7s-5.3 2-5.3 4.7v13.8h-9.7v-13.8c0-2.6-2.4-4.7-5.4-4.7-3 0-5.3 2-5.3 4.7v13.8h-2v-13.8c0-2.6-2.3-4.7-5.3-4.7s-5.3 2-5.3 4.7v13.8h-4.7v-28.2h-.3c-.5-2.4-3-11.1-11.6-12v-2.8c0-.3-.2-.5-.3-.6h70.5v43.6zm-19.1 0v-13.8c0-1.8 1.7-3.3 3.8-3.3 2.2 0 3.9 1.5 3.9 3.3v13.8h-7.7zm-20.4 0v-13.8c0-1.8 1.7-3.3 3.8-3.3 2.1 0 3.9 1.5 3.9 3.3v13.8h-7.7zm-12.6 0v-13.8c0-1.8 1.7-3.3 3.8-3.3 2.1 0 3.9 1.5 3.9 3.3v13.8h-7.7zm52 58.6h-54.7l-3.5-11.3V300h4.7v.1h53.6v57zm0 13.9h-50.3l-4-12.5H764V371zm-90.7 0l4-12.7.1-.4 3.4-10.8h24l3 10 .4 1.4 4 12.5h-38.9zm-10.3 0l3.9-23.7v-39.7h8.6v39.8l1.3 7.9-5 15.7h-8.8zm-6.4 0v-33a20 20 0 0 0-39.9 0v33h-5l-4-23.7v-18.5a31 31 0 0 1 57.8 0v18.4l-3.9 23.8h-5zm-1.5 0h-37v-33a18.5 18.5 0 0 1 37 0v33zm-53.6 0l-5-16 1.2-7.7v-39.7h8.7v39.8L610 371h-8.7zm-40.4 0l3.9-12.3.4-1.4v-.1l3.2-10h24l2.4 8 .6 2 4.4 13.8h-38.9zm-35.4 0v-12.3h37.8l-3.9 12.3h-33.9zm-51-117.5h49.6v-23.1h-49.6v23zm49.6 44.8h-6.9v-14c0-2.5-2.4-4.6-5.3-4.6-3 0-5.3 2-5.3 4.7v13.9h-2v-14c0-2.5-2.4-4.6-5.3-4.6-3 0-5.3 2-5.3 4.7v13.9h-2v-14c0-2.5-2.4-4.6-5.3-4.6-3 0-5.3 2-5.3 4.7v13.9h-6.9v-43.4h49.6v43.4zm-16 0v-14c0-1.7 1.7-3.2 3.8-3.2 2.2 0 3.9 1.5 3.9 3.3v13.9H508zm-12.7 0v-14c0-1.7 1.7-3.2 3.9-3.2 2.1 0 3.9 1.5 3.9 3.3v13.9h-7.8zm-12.6 0v-14c0-1.7 1.7-3.2 3.9-3.2 2.1 0 3.9 1.5 3.9 3.3v13.9h-7.8zm41.3 59h-6.9v-16.4h-10.6v16.4h-2v-16.4H494v16.4h-2v-16.4h-10.6v16.4h-6.9v-57.6h49.6v57.6zm-16 0h7.7v-15H508v15zm-12.7 0h7.8v-15h-7.8v15zm-12.6 0h7.8v-15h-7.8v15zm-8.3 13.7h49.6v-12.3h-49.6V371zm-1.6-142c4.1-5.7 22-30.8 26.2-44.2h.4c4.2 13.4 22 38.5 26.2 44.2h-52.8zm80-20h2.5l3.3 3.4 2.2 2.1.5.5 23.5 23.2v.5h-59.4v-2.6l27.4-27zm32 6v21.2L563.4 215h21.5zm-59.4 38.5h60V240h-60v13.4zm60.8-19.8h100.2v4.2l-.8.8h-98.2l-1.2-1.1v-3.9zm0-1.4h10.3v-62.5h-10.3v62.5zm80.8-6.9v6.9h-61.3v-6.7s1.4-5.7 8-7.9a14 14 0 0 0 5.4-7.8h34.4a14 14 0 0 0 5.7 7.9c6.3 2.1 7.7 7.6 7.8 7.6zm-69-22h76.7v28.9h-6.3v-7c-.1-.3-1.7-6.5-8.6-8.8 0 0-4-2.5-5-7.5l-.1-.5H618l-.1.5c-1 5-4.9 7.5-4.9 7.5-7 2.3-8.6 8.5-8.7 9v6.8H598v-28.8zm0-1.3h76.7V193H598v9zm0-10.5h76.7v-37.4H598v37.4zm19.3-38.8h38.1v-9.1h-38.1v9zm0-10.5v-16.6a19 19 0 0 1 38.1 0v16.6h-38.1zM598 94h76.8v58.7H657v-27a20.5 20.5 0 0 0-41 0v27h-18V94zm0-1.4h76.8V81H598v11.7zm0-31.2h4.9v7h6.2v-7h4.8v18.1H598v-18zm17.3 18.1h42.2v-8.3h-42.2v8.3zm16.8-42h8.7l13 32.3H619l13-32.4zM659 61.4h4.8v7h6.2v-7h4.8v18.1H659v-18zm11 192h16v-12.9h-16v12.9zm-65.7 44h64.3v-56.9h-64.3v57zm-17.3-44h15.9v-12.9h-16v12.9zm-18.3 33.3H592v-15.1h-23.2v15zm0 11.5H592v-9.8h-23.2v9.8zm0 16.1H592v-14.7h-23.2v14.8zm0 21.2H592V316h-23.2v19.7zm0 10.1H592V337h-23.2v8.7zm11.4-86h.4c8.1.1 10.6 8 11.1 10.6H569c.6-2.6 3-10.5 11.1-10.6zm-14.8 38.6v-14c0-2.5-2.4-4.6-5.3-4.6-3 0-5.3 2-5.3 4.7v13.9h-2v-14c0-2.5-2.4-4.6-5.3-4.6-3 0-5.3 2-5.3 4.7v13.9h-2v-14c0-2.5-2.4-4.6-5.4-4.6-2.9 0-5.3 2-5.3 4.7v13.9h-3.9v-43.4h54c-.2.1-.3.3-.3.6v2.9c-8.6.8-11.1 9.5-11.6 11.9h-.3v28h-2zm-9.2 0v-14c0-1.7 1.7-3.2 3.9-3.2 2.1 0 3.8 1.5 3.8 3.3v13.9h-7.7zm-12.6 0v-14c0-1.7 1.7-3.2 3.9-3.2 2.1 0 3.8 1.5 3.8 3.3v13.9h-7.7zm-12.6 0v-14c0-1.7 1.7-3.2 3.8-3.2 2.2 0 4 1.5 4 3.3v13.9h-7.8zm0 59h7.7v-15H531v15zm12.6 0h7.7v-15h-7.7v15zm20.3-15v15H556v-15h7.7zm-9.1-1.4v16.4h-2v-16.4H542v16.4h-2v-16.4h-10.7v16.4h-3.9v-57.6h41.8V346l-2 6.5v-11.6h-10.6zm51.4-34.7h-8.5c.3-1.2 1.2-3.4 4.3-3.4 3 0 4 2.2 4.2 3.4zm69.1 0h-8.4a4 4 0 0 1 4.2-3.4c3 0 4 2.2 4.2 3.4zm16.2-50.7v2.9c-8.5.8-11.1 9.5-11.6 11.9h-.3V346l-2 6.2-.8-5v-41c-.4-2-1.8-4.8-5.7-4.8-4 0-5.3 2.8-5.6 4.8h-.1v19.4a32.3 32.3 0 0 0-57.7 0v-19.4h-.1c-.3-2-1.7-4.8-5.6-4.8-4 0-5.4 2.8-5.6 4.8h-.2v41l-.8 4.9-2-6.3v-75.5h-.2c-.5-2.4-3.1-11.1-11.6-12v-2.8c0-.3-.2-.5-.3-.6h21.7v44H670v-44h21.7c-.2.1-.3.3-.3.6zm-10.2 14.8c.6-2.6 3-10.5 11.2-10.6h.4c8 .1 10.5 8 11 10.6h-22.6zm-.3 16.8h23.3v-15.4h-23.3V287zm1.7 11.4v.1h-1.7v-10.1h23.3v10h-21.6zm-1.7 16h23.3V300h-23.3v14.5zm0 31.2h23.3V337h-23.3v8.7zm0-10h23.3v-19.8h-23.3v19.7zm-4.7-103.4h10.3v-62.5h-10.3v62.5zm11.7 6.2l23.9-23.5 1.4-1.4 4.6-4.5h2.4l30.1 29.6H688v-.2zm0-23.5h21.9l-21.9 21.5V215zm64.5 23.7l-31.7-31v-3.3h-.5v-2.1h1.4c.6 0 1-.5 1-1 0-.6-.4-1-1-1h-1.4v-2.7a1.1 1.1 0 1 0-2.3 0v2.6h-1.4a1 1 0 0 0-1 1c0 .6.4 1 1 1h1.4v2.2h-.6v3.2l-6 6h-23.4v-45.2h-11.7V60h-7.6v7h-3.4v-7h-7.7v9.8h-2.2L642 36.6l-.2-.5h-1.4c.3-.3.5-.6.5-1 0-1-.8-1.8-1.8-1.8h-1.3v-4.1a2.2 2.2 0 0 0 0-4.1V.9h-2.5v24.2c-.9.2-1.5 1-1.5 2s.6 1.8 1.5 2v4.2H634c-1 0-1.8.8-1.8 1.8 0 .4.2.7.4 1h-1.4L617.5 70h-2.2V60h-7.6v7h-3.4v-7h-7.7v108.3H585v45.2h-23l-6-6v-3.2h-.6v-2.1h1.4c.6 0 1-.5 1-1 0-.6-.4-1-1-1h-1.4v-2.7c0-.6-.5-1.2-1.2-1.2-.6 0-1 .6-1 1.2v2.6h-1.5a1 1 0 1 0 0 2h1.4v2.2h-.6v3.2L525.6 234v-3.7h3l-.9-1.1c-.2-.4-21.8-29.9-26.6-44.5V180h-.6v-2h1.4c.6 0 1-.5 1-1.1 0-.6-.4-1-1-1h-1.4v-2.7c0-.6-.5-1.1-1.1-1.1-.6 0-1.1.5-1.1 1.1v2.7h-1.5a1 1 0 0 0-1 1c0 .6.5 1 1 1h1.5v2.1h-.6v4.7c-4.8 14.6-26.4 44.1-26.6 44.5l-.9 1.1h3v142h292.2V238.7h-13z"/><path d="M752.5 277.6h-7.7v-13.9c0-1.8 1.7-3.2 3.8-3.2 2.2 0 3.9 1.4 3.9 3.2v13.9zm1.5-13.9c0-2.6-2.4-4.7-5.4-4.7-3 0-5.3 2.1-5.3 4.7V279H754v-15.3zm-22 13.9h-7.6v-13.9c0-1.8 1.7-3.2 3.8-3.2 2.1 0 3.9 1.4 3.9 3.2v13.9zm1.6-13.9c0-2.6-2.4-4.7-5.4-4.7-3 0-5.3 2.1-5.3 4.7V279h10.7v-15.3zm-14.1 13.9h-7.7v-13.9c0-1.8 1.7-3.2 3.8-3.2 2.1 0 3.9 1.4 3.9 3.2v13.9zm1.4-13.9c0-2.6-2.3-4.7-5.3-4.7s-5.3 2.1-5.3 4.7V279h10.6v-15.3zm-9.1 71.3h7.7v-20h-7.7v20zm-1.5 1.4h10.6v-22.7h-10.6v22.7zm14.1-1.4h7.7v-20h-7.7v20zm-1.5 1.4h10.7v-22.7h-10.7v22.7zm-159.1-59.1h-7.7v-14c0-1.7 1.7-3.2 3.9-3.2 2.1 0 3.8 1.5 3.8 3.3v13.9zm-3.8-18.6c-3 0-5.3 2.1-5.3 4.7v15.3h10.6v-15.3c0-2.6-2.4-4.7-5.3-4.7zm-8.8 18.6h-7.7v-14c0-1.7 1.7-3.2 3.9-3.2 2.1 0 3.8 1.5 3.8 3.3v13.9zm-3.8-18.6c-3 0-5.3 2.1-5.3 4.7v15.3h10.6v-15.3c0-2.6-2.4-4.7-5.3-4.7zm-8.8 18.6H531v-14c0-1.7 1.7-3.2 3.8-3.2 2.2 0 4 1.5 4 3.3v13.9zm-3.9-18.6c-2.9 0-5.3 2.1-5.3 4.7v15.3H540v-15.3c0-2.6-2.3-4.7-5.3-4.7zm-3.8 76.9h7.7v-19.8H531v19.8zm-1.5 1.5H540v-22.7h-10.6V337zm14.1-1.5h7.7v-19.8h-7.7v19.8zm-1.4 1.5h10.6v-22.7H542V337zm13.9-1.5h7.8v-19.8h-7.7v19.8zm-1.3 1.5h10.6v-22.7h-10.6V337zm98.3-70.7h-8v-13.9c0-1.8 1.8-3.3 4-3.3 2 0 3.8 1.5 3.8 3.3v14zm-4-18.6c-2.9 0-5.3 2.1-5.3 4.7v15.3h10.7v-15.3c0-2.6-2.4-4.7-5.4-4.7zm4 39.6h-8v-14c0-1.7 1.8-3.2 4-3.2 2 0 3.8 1.5 3.8 3.3v13.9zm-4-18.6c-2.9 0-5.3 2-5.3 4.7v15.3h10.7v-15.3c0-2.6-2.4-4.7-5.4-4.7zm-8.7-2.4h-7.8v-13.9c0-1.8 1.8-3.3 4-3.3 2 0 3.8 1.5 3.8 3.3v14zm-3.9-18.6c-2.9 0-5.3 2.1-5.3 4.7v15.3h10.6v-15.3c0-2.6-2.3-4.7-5.3-4.7zm3.9 39.6h-7.8v-14c0-1.7 1.8-3.2 4-3.2 2 0 3.8 1.5 3.8 3.3v13.9zm-3.9-18.6c-2.9 0-5.3 2-5.3 4.7v15.3h10.6v-15.3c0-2.6-2.3-4.7-5.3-4.7zm-8.7-2.4H620v-13.9c0-1.8 1.8-3.3 4-3.3 2 0 3.8 1.5 3.8 3.3v14zm-3.9-18.6c-2.9 0-5.3 2.1-5.3 4.7v15.3h10.6v-15.3c0-2.6-2.3-4.7-5.3-4.7zm3.9 39.6H620v-14c0-1.7 1.8-3.2 4-3.2 2 0 3.8 1.5 3.8 3.3v13.9zm-3.9-18.6c-2.9 0-5.3 2-5.3 4.7v15.3h10.6v-15.3c0-2.6-2.3-4.7-5.3-4.7zm1.5-99.8h2.3v-5.5h-2.3v5.4zm-1.4 1.3h5v-8.2h-5v8.2zm1.4 8.7h2.3v-5.4h-2.3v5.4zm-1.4 1.4h5v-8.2h-5v8.2zm1.4 8.6h2.3v-5.4h-2.3v5.4zm-1.4 1.4h5v-8.2h-5v8.2zm11.4-21.4h2.3v-5.5h-2.3v5.4zm-1.4 1.3h5v-8.2h-5v8.2zm1.4 8.7h2.3v-5.4h-2.3v5.4zm-1.4 1.4h5v-8.2h-5v8.2zm1.4 8.6h2.3v-5.4h-2.3v5.4zm-1.4 1.4h5v-8.2h-5v8.2zm11.4-21.4h2.2v-5.5h-2.2v5.4zm-1.4 1.3h5v-8.2h-5v8.2zm1.4 8.7h2.2v-5.4h-2.2v5.4zm-1.4 1.4h5v-8.2h-5v8.2zm1.4 8.6h2.2v-5.4h-2.2v5.4zm-1.4 1.4h5v-8.2h-5v8.2zm-7.5-51.5a13 13 0 1 1 0-26.1 13 13 0 0 1 0 26zm0-27.5a14.4 14.4 0 1 0 0 29 14.4 14.4 0 0 0 0-29zM515.8 277.3H508v-14c0-1.7 1.8-3.2 4-3.2 2 0 3.8 1.5 3.8 3.3v13.9zm1.4-14c0-2.5-2.4-4.6-5.3-4.6-3 0-5.3 2.1-5.3 4.7v15.3h10.6v-15.3zm-14 14h-7.8v-14c0-1.7 1.7-3.2 3.9-3.2 2.1 0 3.9 1.5 3.9 3.3v13.9zm1.4-14c0-2.5-2.4-4.6-5.3-4.6-3 0-5.3 2.1-5.3 4.7v15.3h10.6v-15.3zm-14 14h-7.8v-14c0-1.7 1.7-3.2 3.9-3.2 2.1 0 3.9 1.5 3.9 3.3v13.9zm1.4-14c0-2.5-2.4-4.6-5.3-4.6-3 0-5.3 2.1-5.3 4.7v15.3H492v-15.3zm-9.2 72.3h7.8v-19.8h-7.8v19.8zm-1.4 1.5H492v-22.7h-10.6V337zm14-1.5h7.8v-19.8h-7.8v19.8zm-1.4 1.5h10.6v-22.7H494V337zm14-1.5h7.8v-19.8H508v19.8zm-1.4 1.5h10.6v-22.7h-10.6V337z"/></g></svg>
